<?xml version="1.0" encoding="UTF-8"?>
<svg id="_Слой_1" data-name="Слой 1" xmlns="http://www.w3.org/2000/svg" xmlns:xlink="http://www.w3.org/1999/xlink" viewBox="0 0 613.72 617">
  <defs>
    <style>
      .cls-1 {
        mask: url(#mask);
      }

      .cls-2 {
        fill: none;
        stroke: #2757ff;
        stroke-miterlimit: 10;
        stroke-width: 20px;
      }

      .cls-3 {
        fill: rgba(91, 127, 255, .31);
      }

      .cls-3, .cls-4, .cls-5, .cls-6 {
        stroke-width: 0px;
      }

      .cls-5 {
        fill: #2757ff;
      }

      .cls-6 {
        fill: #fff;
      }
    </style>
    <mask id="mask" x="-.39" y="468.34" width="617.14" height="151.86" maskUnits="userSpaceOnUse">
      <g id="path-1-outside-1_6_2190" data-name="path-1-outside-1 6 2190">
        <rect class="cls-6" x="-.39" y="468.34" width="617.14" height="151.86"/>
        <path class="cls-4" d="m116.27,556.94H36.6v-25.39h79.67v25.39Zm11.24-56.99H26.52v113.78H1.32v-126.29c0-1.74.32-3.39.97-4.94.65-1.55,1.52-2.91,2.62-4.07,1.16-1.16,2.52-2.07,4.07-2.71,1.55-.65,3.23-.97,5.04-.97h113.49v25.2Zm159.24,21.52c0,5.75-.71,10.89-2.13,15.41-1.42,4.52-3.36,8.53-5.81,12.02-2.39,3.42-5.17,6.36-8.34,8.82-3.17,2.46-6.49,4.49-9.98,6.11-3.42,1.55-6.91,2.68-10.47,3.39-3.49.71-6.79,1.07-9.89,1.07l52.63,45.46h-38.96l-52.53-45.46h-18.12v-25.2h56.99c3.17-.26,6.04-.9,8.63-1.94,2.65-1.1,4.91-2.55,6.79-4.36,1.94-1.81,3.42-3.97,4.46-6.49,1.03-2.58,1.55-5.52,1.55-8.82v-15.89c0-1.42-.19-2.49-.58-3.2-.32-.78-.78-1.32-1.36-1.65-.51-.39-1.1-.61-1.74-.68-.58-.06-1.13-.1-1.65-.1h-83.16v113.78h-25.2v-126.29c0-1.74.32-3.39.97-4.94.65-1.55,1.52-2.91,2.62-4.07,1.16-1.16,2.52-2.07,4.07-2.71,1.55-.65,3.23-.97,5.04-.97h95.66c5.62,0,10.37,1.03,14.25,3.1,3.88,2,7.01,4.56,9.4,7.65,2.45,3.04,4.2,6.33,5.23,9.89,1.1,3.55,1.65,6.88,1.65,9.98v16.09Zm170.97,92.27h-35.77l-56.7-56.8h-17.74v-25.39h17.74l56.7-56.79h35.77l-71.43,69.49,71.43,69.49Zm-120.28,0h-25.2v-138.98h25.2v138.98Zm274.96-10.76c0,1.81-.36,3.49-1.07,5.04-.65,1.55-1.55,2.91-2.71,4.07-1.1,1.1-2.42,1.97-3.97,2.62-1.55.65-3.2.97-4.94.97-1.55,0-3.13-.29-4.75-.87-1.55-.58-2.94-1.52-4.16-2.81l-92.07-96.15v97.89h-25.2v-128.23c0-2.58.71-4.91,2.13-6.98,1.49-2.13,3.36-3.72,5.62-4.75,2.39-.97,4.84-1.2,7.36-.68,2.52.45,4.69,1.62,6.49,3.49l92.07,96.04v-97.89h25.2v128.22Z"/>
      </g>
    </mask>
  </defs>
  <path class="cls-5" d="m116.27,556.94H36.6v-25.39h79.67v25.39Zm11.24-56.99H26.52v113.78H1.32v-126.29c0-1.74.32-3.39.97-4.94.65-1.55,1.52-2.91,2.62-4.07,1.16-1.16,2.52-2.07,4.07-2.71,1.55-.65,3.23-.97,5.04-.97h113.49v25.2Zm159.24,21.52c0,5.75-.71,10.89-2.13,15.41-1.42,4.52-3.36,8.53-5.81,12.02-2.39,3.42-5.17,6.36-8.34,8.82-3.17,2.46-6.49,4.49-9.98,6.11-3.42,1.55-6.91,2.68-10.47,3.39-3.49.71-6.79,1.07-9.89,1.07l52.63,45.46h-38.96l-52.53-45.46h-18.12v-25.2h56.99c3.17-.26,6.04-.9,8.63-1.94,2.65-1.1,4.91-2.55,6.79-4.36,1.94-1.81,3.42-3.97,4.46-6.49,1.03-2.58,1.55-5.52,1.55-8.82v-15.89c0-1.42-.19-2.49-.58-3.2-.32-.78-.78-1.32-1.36-1.65-.51-.39-1.1-.61-1.74-.68-.58-.06-1.13-.1-1.65-.1h-83.16v113.78h-25.2v-126.29c0-1.74.32-3.39.97-4.94.65-1.55,1.52-2.91,2.62-4.07,1.16-1.16,2.52-2.07,4.07-2.71,1.55-.65,3.23-.97,5.04-.97h95.66c5.62,0,10.37,1.03,14.25,3.1,3.88,2,7.01,4.56,9.4,7.65,2.45,3.04,4.2,6.33,5.23,9.89,1.1,3.55,1.65,6.88,1.65,9.98v16.09Zm170.97,92.27h-35.77l-56.7-56.8h-17.74v-25.39h17.74l56.7-56.79h35.77l-71.43,69.49,71.43,69.49Zm-120.28,0h-25.2v-138.98h25.2v138.98Zm274.96-10.76c0,1.81-.36,3.49-1.07,5.04-.65,1.55-1.55,2.91-2.71,4.07-1.1,1.1-2.42,1.97-3.97,2.62-1.55.65-3.2.97-4.94.97-1.55,0-3.13-.29-4.75-.87-1.55-.58-2.94-1.52-4.16-2.81l-92.07-96.15v97.89h-25.2v-128.23c0-2.58.71-4.91,2.13-6.98,1.49-2.13,3.36-3.72,5.62-4.75,2.39-.97,4.84-1.2,7.36-.68,2.52.45,4.69,1.62,6.49,3.49l92.07,96.04v-97.89h25.2v128.22Z"/>
  <g class="cls-1">
    <path class="cls-5" d="m116.27,556.94v1.32h1.32v-1.32h-1.32Zm-79.67,0h-1.32v1.32h1.32v-1.32Zm0-25.39v-1.32h-1.32v1.32h1.32Zm79.67,0h1.32v-1.32h-1.32v1.32Zm11.24-31.59v1.32h1.32v-1.32h-1.32Zm-100.99,0v-1.32h-1.32v1.32h1.32Zm0,113.78v1.32h1.32v-1.32h-1.32Zm-25.2,0H0v1.32h1.32v-1.32Zm3.59-135.3l-.94-.94-.03.03.96.91Zm122.6-3.68h1.32v-1.32h-1.32v1.32Zm-11.24,80.87H36.6v2.65h79.67v-2.65Zm-78.34,1.32v-25.39h-2.65v25.39h2.65Zm-1.32-24.07h79.67v-2.65H36.6v2.65Zm78.34-1.32v25.39h2.65v-25.39h-2.65Zm12.57-32.92H26.52v2.65h100.99v-2.65Zm-102.31,1.32v113.78h2.65v-113.78h-2.65Zm1.32,112.46H1.32v2.65h25.2v-2.65Zm-23.88,1.32v-126.29H0v126.29h2.65Zm0-126.29c0-1.58.29-3.05.87-4.43l-2.44-1.02c-.72,1.72-1.07,3.54-1.07,5.45h2.65Zm.87-4.43c.59-1.41,1.37-2.63,2.36-3.67l-1.92-1.82c-1.21,1.28-2.17,2.78-2.88,4.47l2.44,1.02Zm2.33-3.64c1.04-1.04,2.25-1.84,3.64-2.43l-1.02-2.44c-1.71.71-3.21,1.71-4.5,3l1.87,1.87Zm3.64-2.43c1.38-.58,2.88-.87,4.53-.87v-2.65c-1.97,0-3.82.35-5.55,1.07l1.02,2.44Zm4.53-.87h113.49v-2.65H14.02v2.65Zm112.17-1.32v25.2h2.65v-25.2h-2.65Zm152.62,74.14l-1.08-.76h0s1.09.76,1.09.76Zm-18.32,14.92l.55,1.21h.01s-.56-1.21-.56-1.21Zm-10.47,3.39l-.26-1.3h0l.26,1.3Zm-9.89,1.07v-1.32h-3.55l2.69,2.33.86-1Zm52.63,45.46v1.32h3.56l-2.69-2.32-.87,1Zm-38.96,0l-.87,1,.37.32h.49v-1.32Zm-52.53-45.46l.87-1-.37-.32h-.49v1.32Zm-18.12,0h-1.32v1.32h1.32v-1.32Zm0-25.2v-1.32h-1.32v1.32h1.32Zm56.99,0v1.32h.11s-.11-1.32-.11-1.32Zm8.63-1.94l.49,1.23h.02s-.51-1.23-.51-1.23Zm6.79-4.36l-.9-.97h-.02s.92.97.92.97Zm4.46-6.49l1.22.5h0s-1.23-.5-1.23-.5Zm.97-27.91l-1.22.51.03.06.03.06,1.16-.63Zm-1.36-1.65l-.79,1.06.07.05.08.05.64-1.16Zm-1.74-.68l-.15,1.32h.02l.13-1.32Zm-84.81-.1v-1.32h-1.32v1.32h1.32Zm0,113.78v1.32h1.32v-1.32h-1.32Zm-25.2,0h-1.32v1.32h1.32v-1.32Zm3.59-135.3l-.94-.94-.03.03.96.91Zm119.02-.58l-.62,1.17h.02s.61-1.17.61-1.17Zm9.4,7.65l-1.05.81.02.02,1.03-.83Zm5.23,9.89l-1.27.37v.02s1.27-.39,1.27-.39Zm.33,26.07c0,5.64-.7,10.64-2.07,15.01l2.52.79c1.47-4.68,2.19-9.95,2.19-15.81h-2.65Zm-2.07,15.01c-1.39,4.41-3.27,8.29-5.64,11.65l2.16,1.52c2.54-3.61,4.54-7.74,5.99-12.38l-2.52-.79Zm-5.64,11.66c-2.32,3.32-5.01,6.16-8.06,8.53l1.62,2.09c3.28-2.54,6.15-5.58,8.61-9.11l-2.17-1.52Zm-8.06,8.53c-3.09,2.39-6.33,4.38-9.73,5.95l1.11,2.4c3.58-1.66,7-3.75,10.24-6.26l-1.62-2.09Zm-9.72,5.95c-3.34,1.51-6.73,2.61-10.18,3.3l.52,2.59c3.66-.73,7.24-1.89,10.75-3.48l-1.09-2.41Zm-10.19,3.3c-3.42.7-6.62,1.04-9.62,1.04v2.65c3.2,0,6.59-.37,10.15-1.09l-.53-2.59Zm-10.48,3.37l52.63,45.46,1.73-2-52.63-45.46-1.73,2Zm53.49,43.13h-38.96v2.65h38.96v-2.65Zm-38.09.32l-52.53-45.46-1.73,2,52.53,45.46,1.73-2Zm-53.4-45.78h-18.12v2.65h18.12v-2.65Zm-16.8,1.32v-25.2h-2.65v25.2h2.65Zm-1.32-23.88h56.99v-2.65h-56.99v2.65Zm57.1,0c3.28-.27,6.28-.94,9.01-2.03l-.98-2.46c-2.45.98-5.19,1.6-8.24,1.85l.22,2.64Zm9.02-2.04c2.79-1.15,5.19-2.69,7.2-4.63l-1.84-1.91c-1.74,1.68-3.86,3.05-6.37,4.09l1.01,2.44Zm7.18-4.61c2.08-1.95,3.68-4.27,4.78-6.96l-2.45-1c-.97,2.35-2.34,4.35-4.14,6.03l1.81,1.94Zm4.79-6.97c1.11-2.77,1.64-5.88,1.64-9.31h-2.65c0,3.16-.49,5.93-1.46,8.33l2.46.98Zm1.64-9.31v-15.89h-2.65v15.89h2.65Zm0-15.89c0-1.5-.2-2.83-.74-3.83l-2.32,1.27c.23.42.42,1.22.42,2.57h2.65Zm-.68-3.71c-.4-.98-1.03-1.79-1.94-2.29l-1.28,2.31c.26.14.54.43.78,1l2.44-1.02Zm-1.78-2.2c-.71-.53-1.52-.85-2.41-.94l-.26,2.63c.41.04.76.18,1.08.42l1.59-2.12Zm-2.39-.93c-.62-.07-1.22-.11-1.79-.11v2.65c.46,0,.96.03,1.5.09l.29-2.63Zm-1.79-.11h-83.16v2.65h83.16v-2.65Zm-84.48,1.32v113.78h2.65v-113.78h-2.65Zm1.32,112.46h-25.2v2.65h25.2v-2.65Zm-23.88,1.32v-126.29h-2.65v126.29h2.65Zm0-126.29c0-1.58.29-3.05.87-4.43l-2.44-1.02c-.72,1.72-1.07,3.54-1.07,5.45h2.65Zm.87-4.43c.59-1.41,1.37-2.63,2.36-3.67l-1.92-1.82c-1.21,1.28-2.17,2.78-2.88,4.47l2.44,1.02Zm2.33-3.64c1.04-1.04,2.25-1.84,3.64-2.43l-1.02-2.44c-1.71.71-3.21,1.71-4.5,3l1.87,1.87Zm3.64-2.43c1.38-.58,2.88-.87,4.53-.87v-2.65c-1.97,0-3.82.35-5.55,1.07l1.02,2.44Zm4.53-.87h95.66v-2.65h-95.66v2.65Zm95.66,0c5.46,0,9.98,1,13.62,2.95l1.25-2.34c-4.12-2.19-9.09-3.26-14.87-3.26v2.65Zm13.64,2.96c3.73,1.92,6.7,4.36,8.96,7.29l2.1-1.62c-2.52-3.27-5.81-5.94-9.84-8.02l-1.21,2.35Zm8.98,7.31c2.35,2.91,4.01,6.05,4.99,9.42l2.54-.74c-1.09-3.73-2.92-7.18-5.48-10.35l-2.06,1.66Zm5,9.44c1.07,3.45,1.59,6.65,1.59,9.59h2.65c0-3.26-.58-6.72-1.71-10.38l-2.53.78Zm1.59,9.59v16.09h2.65v-16.09h-2.65Zm172.29,108.36v1.32h3.26l-2.34-2.27-.92.95Zm-35.77,0l-.94.93.39.39h.55v-1.32Zm-56.7-56.8l.94-.93-.39-.39h-.55v1.32Zm-17.74,0h-1.32v1.32h1.32v-1.32Zm0-25.39v-1.32h-1.32v1.32h1.32Zm17.74,0v1.32h.55l.39-.39-.94-.94Zm56.7-56.79v-1.32h-.55l-.39.39.94.93Zm35.77,0l.92.95,2.34-2.27h-3.26v1.32Zm-71.43,69.49l-.92-.95-.97.95.97.95.92-.95Zm-48.85,69.49v1.32h1.32v-1.32h-1.32Zm-25.2,0h-1.32v1.32h1.32v-1.32Zm0-138.98v-1.32h-1.32v1.32h1.32Zm25.2,0h1.32v-1.32h-1.32v1.32Zm120.28,137.66h-35.77v2.65h35.77v-2.65Zm-34.83.39l-56.7-56.79-1.87,1.87,56.7,56.79,1.87-1.87Zm-57.63-57.18h-17.74v2.65h17.74v-2.65Zm-16.41,1.32v-25.39h-2.65v25.39h2.65Zm-1.32-24.07h17.74v-2.65h-17.74v2.65Zm18.67-.39l56.7-56.8-1.87-1.87-56.7,56.79,1.87,1.87Zm55.76-56.41h35.77v-2.65h-35.77v2.65Zm34.84-2.27l-71.43,69.49,1.84,1.9,71.43-69.49-1.84-1.9Zm-71.43,71.39l71.43,69.49,1.84-1.9-71.43-69.49-1.84,1.9Zm-47.92,67.22h-25.2v2.65h25.2v-2.65Zm-23.87,1.32v-138.98h-2.65v138.98h2.65Zm-1.32-137.66h25.2v-2.65h-25.2v2.65Zm23.87-1.32v138.98h2.65v-138.98h-2.65Zm275.22,133.26l-1.21-.55v.02s-.02.02-.02.02l1.22.51Zm-2.71,4.07l-.94-.94.94.94Zm-3.97,2.62l-.51-1.22.51,1.22Zm-9.69.1l-.46,1.24h.02s.45-1.24.45-1.24Zm-4.16-2.81l.96-.91h0s-.95.91-.95.91Zm-92.07-96.15l.96-.91-2.28-2.38v3.3h1.32Zm0,97.89v1.32h1.32v-1.32h-1.32Zm-25.2,0h-1.32v1.32h1.32v-1.32Zm2.13-135.2l-1.09-.76h0s1.09.76,1.09.76Zm5.62-4.75l-.5-1.23h-.03s-.03.02-.03.02l.55,1.21Zm7.36-.68l-.26,1.3h.03s.23-1.3.23-1.3Zm6.49,3.49l.96-.92h0s-.95.92-.95.92Zm92.07,96.04l-.96.92,2.28,2.38v-3.3h-1.32Zm0-97.89v-1.32h-1.32v1.32h1.32Zm25.2,0h1.32v-1.32h-1.32v1.32Zm-1.32,128.22c0,1.63-.32,3.12-.95,4.49l2.41,1.11c.79-1.74,1.19-3.61,1.19-5.59h-2.65Zm-.96,4.53c-.58,1.4-1.39,2.61-2.43,3.64l1.87,1.87c1.29-1.29,2.29-2.79,3-4.5l-2.44-1.02Zm-2.43,3.64c-.97.97-2.14,1.74-3.54,2.33l1.02,2.44c1.7-.71,3.17-1.67,4.4-2.9l-1.87-1.87Zm-3.54,2.33c-1.39.58-2.86.87-4.44.87v2.65c1.91,0,3.74-.36,5.45-1.07l-1.02-2.44Zm-4.44.87c-1.38,0-2.81-.26-4.3-.79l-.89,2.49c1.74.63,3.48.95,5.2.95v-2.65Zm-4.28-.79c-1.35-.5-2.57-1.32-3.67-2.48l-1.92,1.82c1.35,1.42,2.91,2.48,4.66,3.14l.93-2.48Zm-3.68-2.49l-92.07-96.14-1.91,1.83,92.07,96.15,1.91-1.83Zm-94.35-95.23v97.89h2.65v-97.89h-2.65Zm1.32,96.57h-25.2v2.65h25.2v-2.65Zm-23.88,1.32v-128.23h-2.65v128.23h2.65Zm0-128.23c0-2.32.64-4.39,1.9-6.23l-2.18-1.5c-1.58,2.29-2.37,4.88-2.37,7.73h2.65Zm1.9-6.22c1.36-1.95,3.05-3.37,5.09-4.3l-1.1-2.41c-2.48,1.14-4.54,2.88-6.16,5.2l2.17,1.51Zm5.03-4.28c2.15-.87,4.34-1.07,6.6-.61l.53-2.59c-2.78-.57-5.5-.32-8.13.75l.99,2.45Zm6.64-.6c2.24.4,4.16,1.43,5.77,3.11l1.91-1.84c-2-2.07-4.41-3.37-7.21-3.87l-.47,2.6Zm5.77,3.1l92.07,96.05,1.91-1.83-92.07-96.05-1.91,1.83Zm94.35,95.13v-97.89h-2.65v97.89h2.65Zm-1.32-96.57h25.2v-2.65h-25.2v2.65Zm23.87-1.32v128.22h2.65v-128.22h-2.65Z"/>
  </g>
  <path class="cls-3" d="m118.12,26.82l69.56,42.3,96.85,108.34,27.29,31.17,46.37-57.63,10.63-3.96,19.56,67.53-3.14-76.18,4.59-8.16,4.59-6.68,37.43-11.63,39.85-12.37-28.5,38.83-4.59,47,58.21,82.61,4.83,32.9-39.13-21.27-41.06-18.8-52.17,57.14-30.19,29.68-60.62,12.61-30.92,36.11-46.61,19.79-14.01-8.9h-19.32l-15.46-4.45,50.72-84.84-11.59-54.42-13.77-78.16-21.25-66.29-17.39-40.32-20.77-51.94Z"/>
  <path class="cls-2" d="m355.63,269.01c6.55-3.96,17.03-12.7,21.07-15.4,5.89-4,7.91-5.59,9.99-8.16,1-1.25,4.37-5.62,5.99-12.26,1.69-6.81.73-12.43,0-16.35-4.63-25.46-7.97-40.86-7.97-40.86-2.38-10.9-3.8-17.71-5.99-24.55-2.55-7.89-3.8-11.85-4-12.26-1.26-2.98-2.68-5.55-1.99-6.13.73-.61,3.21,1.42,4,2.03,6.42,5.11,13.69,9.04,19.91,14.29,13.26,11.21,10.68,8.29,19.91,16.35,9.33,8.13,16.93,14.73,25.9,24.55,6.09,6.64,10.69,12.59,19.95,24.55,8.4,10.83,12.6,16.25,17.96,24.54,1.89,2.91,5.92,10.16,13.96,24.55,7.71,13.85,13.26,23.97,11.97,32.71-.23,1.49-.83,5.55-4,8.16-.46.41-2.94,2.44-5.98,2.03-2.12-.27-7.91-3.52-8.37-3.93-9.33-6.98-13.3-9.85-21.53-16.49-4.76-3.83-14.55-11.65-25.9-18.39-2.18-1.29-6.28-3.66-11.97-4.1-5.53-.44-9.79,1.19-11.97,2.03-6.19,2.44-9.86,6.06-15.98,12.26-4.96,5.08-8.3,9.44-11.97,14.29-3.74,4.94-6.15,8.6-9.99,14.29-16.14,24.27-16.31,24.58-17.96,26.58-6.12,7.52-11.18,13.64-19.91,18.39-4.47,2.44-9,3.69-17.96,6.13-14.09,3.83-25.11,5.65-27.92,6.13-13.4,2.2-14.52,1.52-35.89,4.1-26.96,3.25-31.33,5.01-33.87,6.13-2.55,1.12-7.96,5.09-20.52,14.48-7.18,4.13-9.83,7.68-13.04,9.65-6.62,4.03-9.9,8.51-24.63,12.6-2.02,1.08-9.31.95-13.58,0-.93-.2-4.53-.98-5.99-4.1-1.12-2.4-.36-4.91,0-6.13,1.06-3.49,3.44-5.62,4-6.13,8.83-8.06,14.45-19.2,21.93-28.64,1.79-2.27,9.06-11.54,15.98-22.48,1.79-2.88,5.23-8.53,5.99-16.35.26-2.91.1-5.15,0-6.13-5.03-56.3-15.98-108.3-15.98-108.3-10.85-51.83-11.35-54.44-13.96-63.35-2.05-6.97-8.5-28.41-19.91-55.19-6.75-15.84-12.3-28.74-21.93-44.96-14.49-24.55-26.2-36.23-23.88-38.8,1.55-1.73,8.24,2,33.87,18.38,22.29,14.22,33.44,21.33,37.87,24.55,37.67,27.12,62.91,56.27,77.77,73.6,8.83,10.33,21.13,24.31,35.89,46.99,3.84,5.92,21.4,33.28,37.88,73.6,4.4,10.77,7.71,19.97,9.99,26.58"/>
  <path class="cls-2" d="m302.64,210.35c5.3-4.72,10.63-9.47,16-14.22,5.7-5.12,8.08-9,16.92-17.01,4.17-3.77,19.32-21.73,29.25-25.1"/>
  <path class="cls-2" d="m396.3,132.04c4.95-6.75,24.01-16.4,31.96-20.47,9.9-5.06,18.15-10.12,26.39-13.5,0,0,9.9-5.06,23.09-8.44,4.32-1.49,9.57-2.67,10.29-1.49.66,1.08-2.01,3.75-5.97,8.13-4.16,4.62-7.78,9.65-11.94,14.24-6.83,7.59-11.84,15.96-21.87,32.6-5.05,8.4-11.28,19.37-17.88,32.6"/>
  <path class="cls-2" d="m207.73,386.46c-.16,1.56-16.9,18.96-16.67,21.44.23,2.28-4.46,9.6,0,11.95,9.91,3.4,28.55-2.02,40.3-9.15,6.52-3.96,6.32-4.27,21.25-19.79l16.41-21.45,4.15-7.74"/>
</svg>