<svg width="23" height="22" viewBox="0 0 23 22" fill="none" xmlns="http://www.w3.org/2000/svg">
<style type="text/css">
	.st0{fill:none;stroke:#CCCAC8;stroke-width:1.6;stroke-miterlimit:10;}
</style>
<path class="st0" d="M14,13.6c0.3-0.2,0.8-0.6,1-0.7c0.3-0.2,0.4-0.3,0.5-0.4c0-0.1,0.2-0.3,0.3-0.6c0.1-0.3,0-0.6,0-0.8
	c-0.2-1.2-0.4-1.9-0.4-1.9c-0.1-0.5-0.2-0.8-0.3-1.1c-0.1-0.4-0.2-0.6-0.2-0.6c-0.1-0.1-0.1-0.3-0.1-0.3c0,0,0.2,0.1,0.2,0.1
	c0.3,0.2,0.6,0.4,0.9,0.7c0.6,0.5,0.5,0.4,0.9,0.8c0.4,0.4,0.8,0.7,1.2,1.1c0.3,0.3,0.5,0.6,0.9,1.1c0.4,0.5,0.6,0.8,0.8,1.1
	c0.1,0.1,0.3,0.5,0.7,1.1c0.4,0.6,0.6,1.1,0.6,1.5c0,0.1,0,0.3-0.2,0.4c0,0-0.1,0.1-0.3,0.1c-0.1,0-0.4-0.2-0.4-0.2
	c-0.4-0.3-0.6-0.5-1-0.8c-0.2-0.2-0.7-0.5-1.2-0.9c-0.1-0.1-0.3-0.2-0.6-0.2c-0.3,0-0.5,0.1-0.6,0.1c-0.3,0.1-0.5,0.3-0.7,0.6
	c-0.2,0.2-0.4,0.4-0.6,0.7c-0.2,0.2-0.3,0.4-0.5,0.7c-0.8,1.1-0.8,1.1-0.8,1.2c-0.3,0.4-0.5,0.6-0.9,0.9c-0.2,0.1-0.4,0.2-0.8,0.3
	c-0.7,0.2-1.2,0.3-1.3,0.3c-0.6,0.1-0.7,0.1-1.7,0.2c-1.3,0.2-1.5,0.2-1.6,0.3c-0.1,0.1-0.4,0.2-1,0.7c-0.3,0.2-0.5,0.4-0.6,0.5
	C6,19.8,5.8,20,5.1,20.2c-0.1,0.1-0.4,0-0.6,0c0,0-0.2,0-0.3-0.2c-0.1-0.1,0-0.2,0-0.3c0-0.2,0.2-0.3,0.2-0.3c0.4-0.4,0.7-0.9,1-1.3
	c0.1-0.1,0.4-0.5,0.7-1.1c0.1-0.1,0.2-0.4,0.3-0.8c0-0.1,0-0.2,0-0.3C6.2,13.4,5.7,11,5.7,11C5.2,8.5,5.2,8.4,5.1,8
	C5,7.7,4.7,6.7,4.1,5.4c-0.3-0.7-0.6-1.3-1-2.1C2.4,2.2,1.9,1.6,2,1.5c0.1-0.1,0.4,0.1,1.6,0.9c1,0.7,1.6,1,1.8,1.1
	C7.1,4.8,8.3,6.1,9,6.9c0.4,0.5,1,1.1,1.7,2.2c0.2,0.3,1,1.6,1.8,3.4c0.2,0.5,0.4,0.9,0.5,1.2"/>
<path class="st0" d="M11.5,10.8c0.2-0.2,0.5-0.4,0.7-0.7c0.3-0.2,0.4-0.4,0.8-0.8c0.2-0.2,0.9-1,1.4-1.2"/>
<path class="st0" d="M15.9,7.2c0.2-0.3,1.1-0.8,1.5-1c0.5-0.2,0.8-0.5,1.2-0.6c0,0,0.5-0.2,1.1-0.4c0.2-0.1,0.4-0.1,0.5-0.1
	c0,0.1-0.1,0.2-0.3,0.4c-0.2,0.2-0.4,0.5-0.6,0.7c-0.3,0.4-0.6,0.7-1,1.5c-0.2,0.4-0.5,0.9-0.8,1.5"/>
<path class="st0" d="M7,19.1c0,0.1-0.8,0.9-0.8,1c0,0.1-0.2,0.4,0,0.6c0.5,0.2,1.3-0.1,1.9-0.4c0.3-0.2,0.3-0.2,1-0.9l0.8-1l0.2-0.4
	"/>
</svg>
